<svg width="53" height="27" viewBox="0 0 53 27" fill="none" xmlns="http://www.w3.org/2000/svg">
<g clip-path="url(#clip0_2_4)">
<path d="M3.59153 14.0668C3.59153 15.5134 4.20675 16.2367 5.43718 16.2367C6.784 16.2367 7.69018 15.7711 8.15577 14.84C8.32206 14.5075 8.40518 14.0835 8.40518 13.568C8.40518 13.0359 8.28047 12.5454 8.03106 12.0965C7.61535 11.3815 6.90041 10.5917 5.88612 9.72705C4.20675 8.29711 3.36706 6.81723 3.36706 5.28752C3.36706 3.74117 3.84925 2.55231 4.81365 1.72094C5.77804 0.889566 6.88377 0.473877 8.13083 0.473877C9.37788 0.473877 10.3672 0.789795 11.0988 1.42164C11.8304 2.05348 12.1962 3.00125 12.1962 4.26494C12.1962 5.09631 11.9136 5.8196 11.3482 6.43482C10.7995 7.05005 10.0679 7.43247 9.15341 7.58211C9.56912 7.93129 9.98477 8.28876 10.4005 8.65458C10.7995 9.02041 11.1654 9.41947 11.4979 9.85176C12.2295 10.8328 12.5953 12.005 12.5953 13.3685C12.5953 14.3162 12.3708 15.1725 11.9219 15.9374C11.4896 16.7023 10.9159 17.3508 10.2009 17.8828C9.50259 18.3983 8.71277 18.7973 7.83153 19.08C6.9503 19.3626 6.12722 19.504 5.36235 19.504C3.73287 19.504 2.46918 19.1299 1.57129 18.3816C0.523765 17.5336 0 16.3115 0 14.7153C0 13.6678 0.340863 12.6535 1.02259 11.6725C1.70431 10.6915 2.42761 10.2009 3.19247 10.2009C3.79106 10.2009 4.09035 10.3838 4.09035 10.7496C4.09035 11.2817 4.00722 11.8138 3.84094 12.3459C3.67467 12.8613 3.59153 13.435 3.59153 14.0668ZM8.43012 6.98352C9.37788 6.03576 9.85177 5.04642 9.85177 4.01552C9.85177 3.6996 9.68547 3.43357 9.35294 3.21741C8.98712 3.01788 8.60471 2.91811 8.20565 2.91811C7.30777 2.91811 6.6593 3.20909 6.26024 3.79105C6.45977 4.50604 6.75077 5.11294 7.13318 5.61176C7.53224 6.11058 7.96453 6.56782 8.43012 6.98352ZM19.0629 8.87905C19.9275 7.89805 21.0332 7.40752 22.38 7.40752C24.3088 7.40752 25.5309 8.18899 26.0464 9.75199C26.196 10.2176 26.2709 10.733 26.2709 11.2983C26.2709 12.5621 25.8552 13.8091 25.0238 15.0395C24.209 16.2699 23.2197 17.1013 22.0558 17.5336H22.3551C23.5689 17.5336 24.7993 17.0847 26.0464 16.1868C26.8445 15.6215 27.468 15.0395 27.917 14.4409C28.3826 13.8257 28.7317 13.5181 28.9645 13.5181C29.1973 13.5181 29.3137 13.7842 29.3137 14.3162C29.3137 15.2473 28.9146 16.1868 28.1165 17.1346C26.9193 18.4981 25.3896 19.2962 23.5273 19.5289C22.1805 19.6786 21.2244 19.7035 20.6591 19.6038C20.0937 19.504 19.6614 19.3793 19.3622 19.2296C18.7137 18.8971 18.3894 18.3983 18.3894 17.7332C18.3894 17.3673 18.4643 17.0348 18.6139 16.7355C19.9275 16.7355 20.9252 16.2367 21.6069 15.2391C22.2886 14.2414 22.6294 12.9943 22.6294 11.4979C22.6294 11.1321 22.4964 10.8078 22.2304 10.5252C21.9643 10.2259 21.6069 10.0762 21.1579 10.0762C20.7256 10.0762 20.2517 10.2675 19.7363 10.6499C19.2208 11.0323 18.8052 11.5145 18.4892 12.0965C18.1899 12.6618 17.9156 13.2271 17.6662 13.7925C17.4167 14.3412 17.2172 15.0395 17.0676 15.8875C16.8015 17.4172 16.4939 19.3461 16.1447 21.6739C15.8122 24.0183 15.6043 25.2737 15.5212 25.44C15.4381 25.6229 15.3134 25.7892 15.1471 25.9388C14.9808 26.0885 14.8062 26.1633 14.6233 26.1633C14.2908 26.1633 14.0164 26.0635 13.8003 25.864C13.2017 25.3485 12.8525 24.9495 12.7527 24.6668C12.653 24.4008 12.6031 24.0516 12.6031 23.6193C12.6031 21.9898 12.8774 19.7035 13.4261 16.7605C13.9749 13.8174 14.9226 10.7579 16.2694 7.58211C16.469 7.11652 16.8181 6.88376 17.317 6.88376C17.8324 6.88376 18.3229 7.3327 18.7885 8.23058C18.9215 8.46335 19.013 8.67952 19.0629 8.87905ZM43.3756 13.4433C43.6749 13.4433 43.8246 13.8257 43.8246 14.5906C43.8246 15.0063 43.65 15.5134 43.3008 16.112C42.9516 16.6939 42.4944 17.2343 41.9291 17.7332C41.3804 18.2153 40.7651 18.6144 40.0834 18.9303C39.4017 19.2463 38.7366 19.4042 38.0881 19.4042C37.1736 19.4042 36.575 18.656 36.2924 17.1595C35.2947 18.7391 33.8149 19.5289 31.8528 19.5289C30.6556 19.5289 29.6996 19.1631 28.9846 18.4315C28.2696 17.6999 27.9204 16.8103 27.9371 15.7628C27.9371 12.9362 28.8765 10.7081 30.7554 9.07858C32.0523 7.96452 33.3992 7.40752 34.7959 7.40752C35.4277 7.40752 35.9265 7.45741 36.2924 7.55717L36.866 7.70682C37.5477 4.49772 38.3375 2.35278 39.2354 1.272C39.5347 0.90619 39.834 0.72329 40.1333 0.72329C40.6155 0.72329 41.0644 1.05584 41.4801 1.72094C41.8459 2.26964 42.0288 2.74353 42.0288 3.14258C42.0288 3.54164 41.9706 3.93239 41.8542 4.31482C41.7378 4.69725 41.5882 5.05474 41.4053 5.38729C41.239 5.70321 41.0478 6.01913 40.8316 6.33505C40.6155 6.63435 40.3994 6.94194 40.1832 7.25788C39.701 9.05364 39.3435 11.0656 39.1107 13.2936C39.0442 13.9255 39.0109 14.4326 39.0109 14.8151C39.0109 15.9623 39.2022 16.536 39.5846 16.536C40.0169 16.536 41.0644 15.6713 42.7272 13.9421C43.0265 13.6096 43.2426 13.4433 43.3756 13.4433ZM31.6034 14.9398C31.6034 16.22 32.0773 16.8602 33.0251 16.8602C33.5904 16.8602 34.1557 16.6441 34.7211 16.2118C35.303 15.7795 35.7519 15.0562 36.0679 14.0419C36.1011 12.5454 36.2757 10.8993 36.5916 9.10352C35.2615 9.36958 34.0975 10.0181 33.0999 11.0489C32.1022 12.0798 31.6034 13.3768 31.6034 14.9398ZM52.4799 13.4433C52.7792 13.4433 52.9289 13.701 52.9289 14.2165C52.9289 14.7153 52.7959 15.2557 52.5298 15.8376C52.2804 16.4196 51.8897 16.9849 51.3576 17.5336C50.8422 18.0657 50.177 18.523 49.3623 18.9054C48.5476 19.2878 47.5832 19.4791 46.4691 19.4791C45.3717 19.4791 44.4073 19.1548 43.5759 18.5063C42.7446 17.8412 42.3289 16.8935 42.3289 15.6631C42.3289 14.416 42.5201 13.2936 42.9025 12.296C43.3016 11.2817 43.817 10.4088 44.4489 9.67717C45.0973 8.94558 45.829 8.38023 46.6437 7.98117C47.4585 7.56546 48.2316 7.35764 48.9632 7.35764C50.2436 7.35764 50.8837 7.86476 50.8837 8.87905C50.8837 9.46099 50.759 9.92658 50.5096 10.2758C50.2768 10.6249 50.0357 10.7995 49.7863 10.7995C49.4538 10.7995 49.1628 10.6831 48.9133 10.4503C48.6639 10.2176 48.3896 10.1012 48.0903 10.1012C47.791 10.0845 47.5 10.2259 47.2173 10.5252C46.9513 10.8245 46.7269 11.2069 46.5439 11.6725C46.1782 12.6036 45.9952 13.6927 45.9952 14.9398C46.0119 15.5383 46.2862 15.9873 46.8183 16.2866C47.1841 16.4861 47.6164 16.5942 48.1152 16.6108C48.614 16.6108 49.0879 16.4445 49.5369 16.112C50.0025 15.7795 50.4265 15.4219 50.8089 15.0395C51.1913 14.6405 51.5239 14.2746 51.8065 13.9421C52.1058 13.6096 52.3303 13.4433 52.4799 13.4433Z" fill="black"/>
</g>
<defs>
<clipPath id="clip0_2_4">
<rect width="53" height="26.1882" fill="white"/>
</clipPath>
</defs>
</svg>
